<?xml version="1.0" encoding="utf-8"?>
<!-- Generator: Adobe Illustrator 26.3.1, SVG Export Plug-In . SVG Version: 6.00 Build 0)  -->
<svg version="1.1" xmlns="http://www.w3.org/2000/svg" xmlns:xlink="http://www.w3.org/1999/xlink" x="0px" y="0px"
	 viewBox="0 0 193.9 93.3" style="enable-background:new 0 0 193.9 93.3;" xml:space="preserve">
<style type="text/css">
	.st0{fill:#325770;}
	.st1{fill:url(#SVGID_1_);}
	.st2{fill:#FFFFFF;}
	.st3{fill:none;}
</style>
<g id="Layer_4">
	<path class="st0" d="M4.5,72.1c0,11,9,20,20,20h148c11,0,20-9,20-20V24.8c0-11,0-12.6,0-20h-168c-11,0-20,9-20,20V72.1z"/>
	<linearGradient id="SVGID_1_" gradientUnits="userSpaceOnUse" x1="95.1781" y1="88.1344" x2="95.1781" y2="2.1906">
		<stop  offset="0" style="stop-color:#417BA6"/>
		<stop  offset="1" style="stop-color:#3C6887"/>
	</linearGradient>
	<path class="st1" d="M1.2,68.8c0,11,9,20,20,20h148c11,0,20-9,20-20V21.5c0-11,0-12.6,0-20h-168c-11,0-20,9-20,20V68.8z"/>
</g>
<g id="Layer_1">
	<g>
		<path class="st0" d="M113.7,25.2V23h4.7c0.2,0,0.3-0.2,0.3-0.6c0-0.3-0.1-0.5-0.3-0.5h-3c-1.1,0-1.7-0.7-1.7-1.8v-1.5
			c0-1.5,0.4-2,2-2h4.6v2.2h-4.1c-0.2,0-0.3,0.2-0.3,0.5c0,0.3,0.1,0.5,0.3,0.5h2.9c1.2,0,1.7,0.7,1.7,2v1.3c0,1.4-0.5,2-1.9,2
			H113.7z"/>
		<path class="st0" d="M122.5,25.2v-8.6h7.1v2.2h-4.8v1.1h2.3v2h-2.3V23h4.8v2.2H122.5z"/>
		<path class="st0" d="M133.5,25.2c-1.7,0-2.3-0.4-2.3-2v-4.5c0-1.7,0.6-2,2.3-2h4.6v2.2h-3.9c-0.5,0-0.7,0.2-0.7,0.6v3
			c0,0.4,0.2,0.6,0.7,0.6h3.9v2.2H133.5z"/>
		<path class="st0" d="M142.2,25.2c-1.7,0-2.3-0.4-2.3-2v-6.5h2.3v5.8c0,0.5,0.1,0.6,0.7,0.6h1.6c0.5,0,0.7-0.1,0.7-0.6v-5.8h2.3
			v6.5c0,1.7-0.6,2-2.3,2H142.2z"/>
		<path class="st0" d="M154.1,25.2v-2.3c0-0.4-0.1-0.6-0.6-0.6h-2v2.9h-2.3v-8.6h5c1.7,0,2.1,0.5,2.1,2V20c0,0.8-0.3,1.2-0.6,1.3
			c0.4,0.1,0.7,0.5,0.7,1.2v2.6H154.1z M154.1,19.3c0-0.3-0.1-0.5-0.4-0.5h-2.2v1.5h2.2c0.4,0,0.4-0.2,0.4-0.6V19.3z"/>
		<path class="st0" d="M158.1,25.2v-8.6h2.3v8.6H158.1z"/>
		<path class="st0" d="M164.1,25.2v-6.4H162v-2.2h6.6v2.2h-2.2v6.4H164.1z"/>
		<path class="st0" d="M172.3,25.2v-3.6l-2.5-4.9h2.8l0.9,2.2l0.9-2.2h2.7l-2.6,4.9v3.6H172.3z"/>
	</g>
	<g>
		<path class="st2" d="M112.7,23.2V21h4.7c0.2,0,0.3-0.2,0.3-0.6c0-0.3-0.1-0.5-0.3-0.5h-3c-1.1,0-1.7-0.7-1.7-1.8v-1.5
			c0-1.5,0.4-2,2-2h4.6v2.2h-4.1c-0.2,0-0.3,0.2-0.3,0.5c0,0.3,0.1,0.5,0.3,0.5h2.9c1.2,0,1.7,0.7,1.7,2v1.3c0,1.4-0.5,2-1.9,2
			H112.7z"/>
		<path class="st2" d="M121.5,23.2v-8.6h7.1v2.2h-4.8v1.1h2.3v2h-2.3V21h4.8v2.2H121.5z"/>
		<path class="st2" d="M132.5,23.2c-1.7,0-2.3-0.4-2.3-2v-4.5c0-1.7,0.6-2,2.3-2h4.6v2.2h-3.9c-0.5,0-0.7,0.2-0.7,0.6v3
			c0,0.4,0.2,0.6,0.7,0.6h3.9v2.2H132.5z"/>
		<path class="st2" d="M141.2,23.2c-1.7,0-2.3-0.4-2.3-2v-6.5h2.3v5.8c0,0.5,0.1,0.6,0.7,0.6h1.6c0.5,0,0.7-0.1,0.7-0.6v-5.8h2.3
			v6.5c0,1.7-0.6,2-2.3,2H141.2z"/>
		<path class="st2" d="M153.1,23.2v-2.3c0-0.4-0.1-0.6-0.6-0.6h-2v2.9h-2.3v-8.6h5c1.7,0,2.1,0.5,2.1,2V18c0,0.8-0.3,1.2-0.6,1.3
			c0.4,0.1,0.7,0.5,0.7,1.2v2.6H153.1z M153.1,17.3c0-0.3-0.1-0.5-0.4-0.5h-2.2v1.5h2.2c0.4,0,0.4-0.2,0.4-0.6V17.3z"/>
		<path class="st2" d="M157.1,23.2v-8.6h2.3v8.6H157.1z"/>
		<path class="st2" d="M163.1,23.2v-6.4H161v-2.2h6.6v2.2h-2.2v6.4H163.1z"/>
		<path class="st2" d="M171.3,23.2v-3.6l-2.5-4.9h2.8l0.9,2.2l0.9-2.2h2.7l-2.6,4.9v3.6H171.3z"/>
	</g>
	<path class="st3" d="M32.3,46.5v11c0,2.1,1,3,4.2,3H48V43H36.5C33.6,43,32.3,44.2,32.3,46.5z"/>
	<g>
		<path class="st0" d="M158.9,50.9h-9.4c-2.1,0-3.1-0.8-3.1-2.4c0-1.7,1-2.5,3.1-2.5h27.1V31.4h-34.4c-13.3,0-19.3,2.7-19.3,12.3
			v4.4c0,8.7,6,11.8,18.5,11.8h10.6c2,0,2.8,0.8,2.8,2.5c0,1.5-0.8,2.2-2.8,2.2h-28.1l-1,0h0v14.5h1h35.1c14.8,0,18.7-3.4,18.7-13.4
			v-2.5C177.6,54.7,173.7,50.9,158.9,50.9z"/>
		<path class="st0" d="M87.2,79.2c-6.1-1.8-6.6-8.1-6.6-13.3V52.3l-6.5,0V24.9h6.5v-7.4H57v13.9H41.3c-16.9,0-23.6,2.6-23.6,14.7
			v18.3c0,12.3,6,14.7,23.6,14.7h38.2h1H87.2L87.2,79.2z M57,63.5H45.5c-3.2,0-4.2-0.9-4.2-3v-11c0-2.3,1.3-3.5,4.2-3.5H57V63.5z"/>
		<path class="st0" d="M110.3,31.4V17.5H86.8v13.9h-6.5V46h6.5v18.5c0,11.9,6.1,14.7,23.6,14.7h6.4V64.7h-3c-2.8-0.1-3.4-0.5-3.4-3
			V46h6.4v-4.3c0-5.3,1.8-8.5,5.7-10.3H110.3z"/>
	</g>
	<g>
		<path class="st2" d="M155.9,47.9h-9.4c-2.1,0-3.1-0.8-3.1-2.4c0-1.7,1-2.5,3.1-2.5h27.1V28.4h-34.4c-13.3,0-19.3,2.7-19.3,12.3
			v4.4c0,8.7,6,11.8,18.5,11.8h10.6c2,0,2.8,0.8,2.8,2.5c0,1.5-0.8,2.2-2.8,2.2h-28.1l-1,0h0v14.5h1h35.1c14.8,0,18.7-3.4,18.7-13.4
			v-2.5C174.6,51.7,170.7,47.9,155.9,47.9z"/>
		<path class="st2" d="M84.2,76.2c-6.1-1.8-6.6-8.1-6.6-13.3V49.3l-6.5,0V21.9h6.5v-7.4H54v13.9H38.3c-16.9,0-23.6,2.6-23.6,14.7
			v18.3c0,12.3,6,14.7,23.6,14.7h38.2h1H84.2L84.2,76.2z M54,60.5H42.5c-3.2,0-4.2-0.9-4.2-3v-11c0-2.3,1.3-3.5,4.2-3.5H54V60.5z"/>
		<path class="st2" d="M107.3,28.4V14.5H83.8v13.9h-6.5V43h6.5v18.5c0,11.9,6.1,14.7,23.6,14.7h6.4V61.7h-3c-2.8-0.1-3.4-0.5-3.4-3
			V43h6.4v-4.3c0-5.3,1.8-8.5,5.7-10.3H107.3z"/>
	</g>
</g>
</svg>
