<?xml version="1.0" standalone="no"?>
<!DOCTYPE svg PUBLIC "-//W3C//DTD SVG 20010904//EN"
 "http://www.w3.org/TR/2001/REC-SVG-20010904/DTD/svg10.dtd">
<svg version="1.0" xmlns="http://www.w3.org/2000/svg"
 width="512.000000pt" height="512.000000pt" viewBox="0 0 512.000000 512.000000"
 preserveAspectRatio="xMidYMid meet">
<metadata>
Created by potrace 1.14, written by Peter Selinger 2001-2017
</metadata>
<g transform="translate(0.000000,512.000000) scale(0.100000,-0.100000)"
fill="#000000" stroke="none">
<path d="M975 5099 c-272 -40 -533 -185 -699 -388 -120 -146 -199 -308 -240
-491 -21 -95 -21 -100 -21 -1640 0 -1262 3 -1559 14 -1620 81 -445 397 -786
836 -901 l90 -24 1605 0 1605 0 98 27 c188 52 350 143 489 276 137 131 230
276 288 449 62 188 60 90 60 2306 l0 2017 -2032 -1 c-1118 -1 -2060 -5 -2093
-10z m2948 -2136 c3 -1476 -1 -1381 77 -1540 63 -128 171 -213 340 -270 54
-18 31 -18 -1225 -21 -1342 -3 -1601 2 -1811 38 -276 47 -434 141 -513 302
-75 155 -84 253 -78 950 3 457 7 575 19 625 59 243 178 369 423 446 196 61
410 77 1058 77 l507 0 0 355 0 355 600 0 599 0 4 -1317z"/>
<path d="M2026 2810 c-16 -5 -40 -19 -54 -32 -50 -46 -52 -63 -52 -413 0 -370
1 -373 73 -406 39 -17 70 -19 385 -19 l342 0 0 440 0 440 -332 -1 c-183 0
-346 -5 -362 -9z"/>
<path d="M1573 3 c544 -2 1430 -2 1970 0 540 1 96 2 -988 2 -1084 0 -1525 -1
-982 -2z"/>
</g>
</svg>
